<svg viewBox="0 0 28 27" xmlns="http://www.w3.org/2000/svg" xmlns:xlink="http://www.w3.org/1999/xlink"><style>:root&gt;svg{display:none}:root&gt;svg:target{display:block}</style><svg fill="none" viewBox="0 0 20 20" id="cart" xmlns="http://www.w3.org/2000/svg"><path fill-rule="evenodd" clip-rule="evenodd" d="M8.036.414C6.82.98 5.784 2.406 5.784 3.514v.442H1.818V20h15.865V3.956h-3.92l-.1-.751c-.147-1.1-.946-2.135-2.098-2.72-1.23-.623-2.297-.645-3.53-.071zm3.17 1.067c.748.503 1.429 1.482 1.429 2.05v.425H6.866v-.424c0-.57.681-1.548 1.428-2.05.826-.557 2.087-.557 2.913 0zM5.785 6.03c0 .981.006.991.541.991.536 0 .541-.01.541-.991v-.992h5.769v.992c0 .981.005.991.54.991.536 0 .541-.01.541-.991v-.992h2.885v13.881H2.9V5.038h2.884v.99z" fill="#fff"/></svg><svg fill="none" viewBox="0 0 26 24" id="chat" xmlns="http://www.w3.org/2000/svg"><path d="M16.947 18.316a.79.79 0 01-.79.79H5.106c-.173 0-.34.157-.481.26l-2.677 2.108V8.842a.79.79 0 01.79-.79h3.047V6.475H2.737A2.368 2.368 0 00.368 8.842v14.21a.79.79 0 00.443.703.789.789 0 00.789-.079l4.066-2.992h10.61a2.188 2.188 0 002.25-2.265v-.893h-1.579v.79z" fill="#fff"/><path d="M23.263.947H9.842a2.368 2.368 0 00-2.368 2.369v9.474a2.368 2.368 0 002.368 2.368H20.54l3.774 2.929a.79.79 0 00.79.087.79.79 0 00.45-.71V3.315a2.368 2.368 0 00-2.29-2.369zm.79 14.953l-2.764-2.155a.789.789 0 00-.481-.166H9.842a.79.79 0 01-.79-.79V3.316a.79.79 0 01.79-.79h13.421a.868.868 0 01.79.837V15.9z" fill="#fff"/></svg><svg fill="none" viewBox="0 0 8 8" id="downarrow" xmlns="http://www.w3.org/2000/svg"><g clip-path="url(#cclip0_812_103)"><path d="M7.167 2.85l-.517-.517L4 4.983l-2.65-2.65-.517.517L4 6l3.167-3.15z" fill="#fff"/></g><defs><clipPath id="cclip0_812_103"><path fill="#fff" transform="rotate(90 4 4)" d="M0 0h8v8H0z"/></clipPath></defs></svg><svg fill="none" viewBox="0 0 22 21" id="facebook" xmlns="http://www.w3.org/2000/svg"><path d="M7.844 19.6v-8.54H5.676V7.985h2.168V5.36c0-2.064 1.281-3.959 4.232-3.959 1.195 0 2.079.12 2.079.12l-.07 2.87s-.901-.008-1.884-.008c-1.065 0-1.235.51-1.235 1.358v2.245h3.204l-.14 3.075h-3.064v8.54H7.844z" fill="#88888F"/></svg><svg fill="none" viewBox="0 0 21 21" id="instagram" xmlns="http://www.w3.org/2000/svg"><path d="M14.9 0H6.1A6.107 6.107 0 000 6.1v8.8C0 18.264 2.737 21 6.1 21h8.8c3.364 0 6.1-2.736 6.1-6.1V6.1C21 2.737 18.264 0 14.9 0zm4.46 14.9a4.465 4.465 0 01-4.46 4.46H6.1a4.465 4.465 0 01-4.46-4.46V6.1A4.465 4.465 0 016.1 1.64h8.8a4.465 4.465 0 014.46 4.46v8.8z" fill="#88888F"/><path d="M10.5 4.84a5.667 5.667 0 00-5.66 5.66c0 3.121 2.539 5.66 5.66 5.66s5.66-2.539 5.66-5.66-2.539-5.66-5.66-5.66zm0 9.68a4.024 4.024 0 01-4.02-4.02 4.024 4.024 0 014.02-4.02 4.024 4.024 0 014.02 4.02 4.024 4.024 0 01-4.02 4.02zm5.742-8.942a.82.82 0 100-1.64.82.82 0 000 1.64z" fill="#88888F"/></svg><svg fill="none" viewBox="0 0 10 10" id="menuarrow" xmlns="http://www.w3.org/2000/svg"><path d="M9 3.562l-.646-.645-3.312 3.312-3.313-3.312-.646.645L5.042 7.5 9 3.562z" fill="#000"/></svg><svg fill="none" viewBox="0 0 8 14" id="nextarrow" xmlns="http://www.w3.org/2000/svg"><path d="M1 1l6 6-6 6" stroke="#44424B" stroke-width="1.2" stroke-linecap="square" stroke-linejoin="round"/></svg><svg fill="none" viewBox="0 0 20 19" id="phone" xmlns="http://www.w3.org/2000/svg"><path d="M14.889 18.926c-.181 0-.361-.02-.538-.06a18.248 18.248 0 01-8.944-4.708A17.602 17.602 0 01.564 5.413 2.465 2.465 0 011.29 3.11l2.153-2.072a1.076 1.076 0 01.829-.29 1.076 1.076 0 01.78.468l2.69 3.977a.861.861 0 01-.059 1.022L6.333 7.83c.538 1.19 1.3 2.266 2.244 3.17a10.364 10.364 0 003.266 2.2l1.674-1.33a.883.883 0 011-.064l4.064 2.626a1.077 1.077 0 01.22 1.674l-2.099 2.077a2.552 2.552 0 01-1.813.743zM4.185 1.813L2.033 3.885a1.367 1.367 0 00-.404 1.292 16.52 16.52 0 004.526 8.211 17.165 17.165 0 008.416 4.43 1.479 1.479 0 001.346-.399l2.098-2.077-3.923-2.535-1.797 1.432a.54.54 0 01-.495.091 10.796 10.796 0 01-3.96-2.556 10.488 10.488 0 01-2.621-3.875.538.538 0 01.129-.51L6.8 5.65 4.185 1.813z" fill="#fff"/></svg><svg fill="none" viewBox="0 0 14 18" id="point" xmlns="http://www.w3.org/2000/svg"><path d="M7 4a3.125 3.125 0 100 6.25A3.125 3.125 0 007 4zm0 5a1.875 1.875 0 110-3.75A1.875 1.875 0 017 9zM7 .25A6.883 6.883 0 00.125 7.125c0 2.453 1.134 5.053 3.278 7.52a19.886 19.886 0 003.239 2.992.625.625 0 00.716 0 19.884 19.884 0 003.239-2.992c2.144-2.467 3.278-5.067 3.278-7.52A6.883 6.883 0 007 .25zm0 16.092c-1.292-1.013-5.625-4.746-5.625-9.217a5.625 5.625 0 0111.25 0c0 4.471-4.334 8.204-5.625 9.217z" fill="#fff"/></svg><svg fill="none" viewBox="0 0 8 14" id="prewarrow" xmlns="http://www.w3.org/2000/svg"><path d="M7 13L1 7l6-6" stroke="#44424B" stroke-width="1.2" stroke-linecap="square" stroke-linejoin="round"/></svg><svg fill="none" viewBox="0 0 17 17" id="ruler" xmlns="http://www.w3.org/2000/svg"><path stroke="#44424B" d="M.5 3.5h16v10H.5zm5-.5v4m3-4v5m3-5v4"/></svg><svg fill="none" viewBox="0 0 20 20" id="search" xmlns="http://www.w3.org/2000/svg"><path d="M8.946 1.818C4.515 1.818.91 5.414.91 9.833c0 4.42 3.606 8.015 8.037 8.015 4.432 0 8.037-3.595 8.037-8.015s-3.605-8.015-8.037-8.015zm0 14.713c-3.705 0-6.72-3.005-6.72-6.698 0-3.693 3.015-6.697 6.72-6.697 3.705 0 6.72 3.004 6.72 6.697s-3.015 6.698-6.72 6.698z" fill="#fff"/><path d="M18.942 18.874l-4.326-4.304a.66.66 0 00-.93.934l4.326 4.304a.657.657 0 00.932-.002.66.66 0 00-.002-.932z" fill="#fff"/></svg><svg fill="none" viewBox="0 0 28 27" id="telegram" xmlns="http://www.w3.org/2000/svg"><g clip-path="url(#mclip0_904_52)"><rect x=".799" width="27" height="27" rx="6" fill="#0087D0"/><circle cx="14.599" cy="13.2" fill="#fff" r="12"/><path d="M14.3 0C6.843 0 .8 6.045.8 13.5.8 20.956 6.843 27 14.3 27c7.455 0 13.5-6.044 13.5-13.5C27.8 6.045 21.754 0 14.3 0zm7.046 6.635l-2.933 13.59a.397.397 0 01-.598.252l-4.512-2.951-2.373 2.178a.398.398 0 01-.63-.167L8.755 14.73l-4.15-1.678c-.317-.144-.313-.644.013-.769l16.197-6.09a.394.394 0 01.53.441h.001z" fill="#0087D0"/><path d="M10.8 18.28l.265-2.506 7.319-7.154-8.836 5.802L10.8 18.28z" fill="#0087D0"/></g><defs><clipPath id="mclip0_904_52"><path fill="#fff" transform="translate(.8)" d="M0 0h27v27H0z"/></clipPath></defs></svg><svg fill="none" viewBox="0 0 20 20" id="user" xmlns="http://www.w3.org/2000/svg"><path d="M9.661 9.196c1.264 0 2.357-.453 3.252-1.347.893-.894 1.346-1.988 1.346-3.251s-.453-2.357-1.347-3.251C12.018.453 10.924 0 9.662 0 8.397 0 7.303.453 6.41 1.347c-.894.894-1.347 1.988-1.347 3.25A4.45 4.45 0 006.41 7.849c.894.894 1.988 1.347 3.251 1.347zm-2.46-7.058c.686-.686 1.49-1.02 2.46-1.02s1.774.334 2.46 1.02c.686.686 1.02 1.49 1.02 2.46s-.334 1.774-1.02 2.46c-.686.686-1.49 1.02-2.46 1.02-.969 0-1.774-.334-2.46-1.02-.686-.686-1.02-1.49-1.02-2.46s.334-1.774 1.02-2.46zM17.707 14.68a11.352 11.352 0 00-.155-1.206 9.5 9.5 0 00-.296-1.213 5.99 5.99 0 00-.499-1.131 4.262 4.262 0 00-.752-.98 3.315 3.315 0 00-1.08-.679 3.732 3.732 0 00-1.378-.25c-.195 0-.384.08-.748.318-.224.146-.486.315-.778.502-.25.159-.59.308-1.008.444a4 4 0 01-1.232.199 3.98 3.98 0 01-1.232-.2c-.418-.134-.757-.284-1.006-.443-.29-.185-.552-.354-.78-.502-.363-.237-.552-.317-.747-.317-.496 0-.96.084-1.378.25-.42.166-.783.394-1.08.678a4.266 4.266 0 00-.752.98 6.005 6.005 0 00-.498 1.131 9.32 9.32 0 00-.297 1.213c-.077.428-.129.833-.155 1.206-.025.365-.038.744-.038 1.128 0 .996.317 1.803.942 2.398.617.587 1.433.885 2.426.885h9.192c.993 0 1.809-.298 2.426-.885.625-.595.942-1.402.942-2.398a15.9 15.9 0 00-.039-1.128zm-1.674 2.715c-.408.389-.95.577-1.655.577H5.186c-.706 0-1.247-.189-1.655-.576-.4-.381-.594-.9-.594-1.588 0-.358.012-.711.035-1.05.023-.333.07-.698.14-1.087a8.4 8.4 0 01.26-1.069c.101-.312.237-.622.407-.92a3.16 3.16 0 01.552-.724 2.2 2.2 0 01.719-.446c.263-.105.56-.162.88-.17.04.02.11.06.223.134.23.15.495.32.788.508.33.21.756.4 1.264.565.52.168 1.05.253 1.576.253a5.12 5.12 0 001.577-.253c.508-.164.934-.354 1.265-.565.3-.192.557-.358.787-.508a3.02 3.02 0 01.222-.134c.322.008.618.065.882.17.284.112.526.263.718.446.205.197.39.44.552.724.17.298.306.608.406.92.105.326.193.686.261 1.07.07.388.117.754.14 1.086.024.338.036.691.036 1.05 0 .688-.194 1.207-.594 1.587z" fill="#fff"/></svg><svg fill="none" viewBox="0 0 27 27" id="viber" xmlns="http://www.w3.org/2000/svg"><rect width="27" height="27" rx="6" fill="#935BBE"/><g clip-path="url(#oclip0_801_57)"><path d="M13.322 5.404c-1.444.017-4.55.255-6.287 1.848-1.292 1.28-1.743 3.173-1.796 5.514-.044 2.332-.097 6.711 4.125 7.904v1.816s-.027.727.454.876c.591.187.928-.372 1.49-.972l1.05-1.187c2.888.24 5.1-.313 5.355-.395.587-.188 3.888-.61 4.427-4.99.554-4.523-.27-7.373-1.755-8.663h-.009c-.448-.413-2.25-1.725-6.275-1.74 0 0-.299-.02-.779-.011zm.05 1.272c.41-.003.659.014.659.014 3.407.01 5.033 1.035 5.417 1.38 1.25 1.072 1.895 3.642 1.423 7.418-.448 3.662-3.125 3.894-3.621 4.052-.211.067-2.16.548-4.614.39 0 0-1.828 2.206-2.4 2.774-.09.1-.196.129-.264.114-.096-.024-.126-.143-.12-.308l.017-3.014c-3.58-.99-3.369-4.725-3.33-6.677.043-1.951.41-3.548 1.5-4.629 1.467-1.327 4.104-1.505 5.331-1.514h.002zm.27 1.95a.223.223 0 00-.226.223c0 .126.102.226.226.226a4.226 4.226 0 013.023 1.192c.817.794 1.216 1.86 1.23 3.255 0 .123.1.225.226.225v-.009a.225.225 0 00.226-.223 4.844 4.844 0 00-1.36-3.57c-.89-.871-2.018-1.32-3.345-1.32v.001zm-2.965.516a.704.704 0 00-.46.09h-.012a3.53 3.53 0 00-.859.707c-.205.237-.316.477-.346.708a.958.958 0 00.036.408l.014.009c.232.68.534 1.333.903 1.948.475.865 1.06 1.664 1.74 2.379l.02.03.032.023.02.023.024.02c.718.683 1.519 1.27 2.385 1.75.99.538 1.591.793 1.951.899v.006c.106.032.203.046.3.046a1.38 1.38 0 00.825-.354 3.41 3.41 0 00.698-.861v-.006c.173-.325.114-.633-.135-.84a10.39 10.39 0 00-1.611-1.158c-.384-.208-.774-.082-.932.129l-.337.425c-.173.21-.486.181-.486.181l-.01.006c-2.34-.598-2.964-2.968-2.964-2.968s-.03-.322.187-.487l.422-.34c.202-.163.342-.553.126-.937a10.123 10.123 0 00-1.155-1.611.642.642 0 00-.378-.226l.002.001zm3.354.668c-.299 0-.299.451.003.451a2.826 2.826 0 011.986.862 2.621 2.621 0 01.674 1.927.227.227 0 00.225.223l.01.012a.227.227 0 00.225-.226c.02-.893-.258-1.643-.803-2.244-.548-.6-1.312-.938-2.288-1.005h-.032zm.37 1.213c-.308-.009-.32.451-.015.46.741.038 1.101.413 1.148 1.184a.224.224 0 00.223.22h.01a.227.227 0 00.216-.24c-.053-1.005-.601-1.571-1.574-1.623H14.4z" fill="#fff"/></g><defs><clipPath id="oclip0_801_57"><path fill="#fff" transform="translate(4.773 5.401)" d="M0 0h18v18H0z"/></clipPath></defs></svg><svg fill="none" viewBox="0 0 28 27" id="whatsapp" xmlns="http://www.w3.org/2000/svg"><g clip-path="url(#pclip0_801_46)"><rect x=".599" width="27" height="27" rx="6" fill="#27D061"/><g clip-path="url(#pclip1_801_46)"><path fill-rule="evenodd" clip-rule="evenodd" d="M18.19 14.867c-.21-.104-1.232-.606-1.422-.676-.19-.07-.33-.104-.469.105-.138.207-.537.676-.658.814-.121.14-.243.157-.45.053-.208-.105-.879-.324-1.674-1.033-.618-.551-1.035-1.232-1.157-1.44-.12-.209-.013-.322.091-.425.094-.093.208-.243.313-.364.104-.122.138-.209.208-.348.07-.139.035-.26-.018-.364-.052-.104-.468-1.128-.641-1.545-.169-.405-.34-.35-.468-.357a8.999 8.999 0 00-.399-.007.762.762 0 00-.554.26c-.191.208-.728.712-.728 1.736 0 1.023.745 2.012.849 2.152.104.138 1.466 2.24 3.553 3.14.497.215.884.343 1.186.438a2.84 2.84 0 001.31.083c.4-.06 1.23-.504 1.404-.99.173-.485.173-.902.122-.989-.052-.086-.19-.138-.4-.242h.001zm-3.796 5.183h-.003a6.91 6.91 0 01-3.522-.965l-.252-.15-2.62.688.7-2.554-.165-.262a6.903 6.903 0 01-1.058-3.682 6.93 6.93 0 016.923-6.919 6.87 6.87 0 014.891 2.029 6.877 6.877 0 012.025 4.895c-.002 3.815-3.105 6.92-6.92 6.92zm5.888-12.808A8.27 8.27 0 0014.393 4.8c-4.588 0-8.323 3.735-8.324 8.325 0 1.467.382 2.899 1.11 4.161L6 21.6l4.413-1.158a8.316 8.316 0 003.978 1.014h.004c4.588 0 8.323-3.735 8.324-8.325a8.275 8.275 0 00-2.436-5.89z" fill="#fff"/></g></g><defs><clipPath id="pclip0_801_46"><path fill="#fff" transform="translate(.599)" d="M0 0h27v27H0z"/></clipPath><clipPath id="pclip1_801_46"><path fill="#fff" transform="translate(5.999 4.8)" d="M0 0h16.8v16.8H0z"/></clipPath></defs></svg></svg>