<svg width="35" height="29" fill="none" xmlns="http://www.w3.org/2000/svg"><path d="M18.109 8.308C18.095 4.961 16.822.9 11.294.717 5.204.206 1.883 4.99 1.267 7.869.147 12.613 2.86 16.032 3.642 16.8c3.035 2.729 5.759 4.861 6.795 5.747.332.279 3.424 2.775 3.96 3.236-.049-.008.719.641 1.338 1.173 1.032.966 1.87.766 2.281-.052a.577.577 0 00.032-.083c.185-.593.026-7.022.086-7.274" stroke="#fff" stroke-miterlimit="10"/><path d="M18.098 8.166v.301c.2 0 .395.072.535.196a.788.788 0 01.251.574c-.036.572-.438.776-.771.776a.813.813 0 01-.535-.196.787.787 0 01-.252-.574c.036-.573.437-.776.772-.776v-.301zm0 0c-.519 0-1.035.349-1.074 1.074.022.706.557 1.074 1.089 1.074.518 0 1.035-.349 1.074-1.074-.023-.707-.557-1.074-1.09-1.074z" fill="#fff"/><path d="M18.615 9.24c-.044.706-1.005.642-1.02 0 .043-.707 1.005-.642 1.02 0zm-.029-5.767a8.736 8.736 0 011.47-1.233 9.564 9.564 0 011.72-.912A9.983 9.983 0 0127.65.83a9.653 9.653 0 011.216.353c.08.028.159.059.238.089l.118.047.118.049c.078.033.155.068.233.102a9.327 9.327 0 011.753 1.046 8.95 8.95 0 011.48 1.416 9.3 9.3 0 01.611.824 9.575 9.575 0 011.239 2.783 10.098 10.098 0 01-.232 5.925 9.775 9.775 0 01-.833 1.785 9.55 9.55 0 01-1.164 1.561 8.817 8.817 0 01-1.444 1.262c.408-.487.782-.99 1.109-1.517.323-.522.602-1.07.836-1.638a10.69 10.69 0 00.782-3.5 10.079 10.079 0 00-.433-3.484 8.888 8.888 0 00-1.632-3.039 8.348 8.348 0 00-1.232-1.203 8.765 8.765 0 00-1.46-.934 9.65 9.65 0 00-3.367-.976 10.425 10.425 0 00-1.79-.03 10.8 10.8 0 00-1.792.278 11.19 11.19 0 00-1.748.58c-.577.246-1.135.535-1.67.864z" fill="#FF454E"/><path d="M27.411 10.79h-5.214V5.667a.452.452 0 00-.453-.452h-3.615a9.034 9.034 0 01.218.904h2.944v5.123a.452.452 0 00.453.453h5.214v6.133h-5.214a.454.454 0 00-.453.452v5.123h-2.705l.003.904h3.155a.453.453 0 00.453-.452v-5.123h5.214a.453.453 0 00.453-.452v-7.038a.452.452 0 00-.453-.452zm-12.369 7.49a.452.452 0 00-.453-.452H9.374v-6.133h5.215a.453.453 0 00.453-.453V6.12h2.403a8.181 8.181 0 00-.248-.904H14.59a.453.453 0 00-.453.452v5.123H8.921a.453.453 0 00-.453.452v7.038a.452.452 0 00.453.452h5.215v5.123a.452.452 0 00.453.452h3.124l-.003-.904h-2.668V18.28z" fill="#fff"/><path d="M15.433 16.326a25.794 25.794 0 00-.4-1.156c-.243-.665-.435-1.19-.444-1.62-.01-.483.219-.81.72-1.029l.018-.008h.02c.717-.024.743-.022.819-.018.06.004.16.01.813.003l.002.211c-.66.008-.761.001-.829-.003-.067-.004-.09-.006-.777.017-.41.185-.582.432-.575.824.008.395.195.905.43 1.551.127.346.27.737.404 1.165l-.2.063zm5.399 0l-.202-.063c.134-.429.277-.82.403-1.165.236-.646.423-1.157.43-1.552.009-.391-.164-.639-.574-.823-.686-.023-.711-.022-.777-.018-.066.005-.17.01-.83.004l.003-.211c.652.007.753 0 .814-.003.075-.005.101-.006.817.017h.02l.02.008c.5.22.729.546.719 1.03-.009.43-.2.955-.443 1.62-.125.342-.267.732-.4 1.156z" fill="#fff"/><path d="M18.11 19.823h-.006c-.48-.003-.94-.303-1.409-.92-.427-.562-.863-1.392-1.336-2.537a.19.19 0 01.042-.205.19.19 0 01.308.062c.892 2.165 1.676 3.22 2.396 3.223h.004c.347 0 .722-.253 1.112-.754.421-.537.858-1.346 1.336-2.472a.188.188 0 01.25-.106.19.19 0 01.115.18.187.187 0 01-.018.073c-.491 1.157-.944 1.993-1.385 2.557-.472.605-.933.899-1.41.899zm-1.042-6.83c-.33-.21-.596-.386-.232-.623.368-.314.646-.227.638.005.012.477.046.792-.406.618zm2.085 0c.33-.21.596-.386.232-.623-.368-.314-.645-.227-.637.005-.013.477-.047.792.405.618z" fill="#FF454E"/></svg>